{
  "accessors": [
    {
      "bufferView": 2,
      "componentType": 5126,
      "count": 588,
      "max": [
        1.3904000520706177,
        0.8833000063896179,
        13.401599884033203
      ],
      "min": [
        -1.4150999784469604,
        -4.320899963378906,
        10.596199989318848
      ],
      "type": "VEC3"
    },
    {
      "bufferView": 2,
      "byteOffset": 7056,
      "componentType": 5126,
      "count": 588,
      "max": [
        1.0,
        1.0,
        1.0
      ],
      "min": [
        -1.0,
        -1.0,
        -1.0
      ],
      "type": "VEC3"
    },
    {
      "bufferView": 1,
      "componentType": 5126,
      "count": 588,
      "max": [
        0.5917844772338867,
        0.9440591335296631
      ],
      "min": [
        0.011700369417667389,
        0.009978034533560276
      ],
      "type": "VEC2"
    },
    {
      "bufferView": 0,
      "componentType": 5125,
      "count": 2100,
      "type": "SCALAR"
    },
    {
      "bufferView": 2,
      "byteOffset": 14112,
      "componentType": 5126,
      "count": 512,
      "max": [
        1.3224000930786133,
        3.0755999088287354,
        13.333600044250488
      ],
      "min": [
        -1.347100019454956,
        -0.8562999963760376,
        10.664199829101563
      ],
      "type": "VEC3"
    },
    {
      "bufferView": 2,
      "byteOffset": 20256,
      "componentType": 5126,
      "count": 512,
      "max": [
        0.9929214119911194,
        0.9985103011131287,
        0.9929303526878357
      ],
      "min": [
        -0.9929196834564209,
        -0.9880839586257935,
        -0.9929197430610657
      ],
      "type": "VEC3"
    },
    {
      "bufferView": 1,
      "byteOffset": 4704,
      "componentType": 5126,
      "count": 512,
      "max": [
        0.9801414012908936,
        0.9754958152770996
      ],
      "min": [
        0.588607668876648,
        0.3245301842689514
      ],
      "type": "VEC2"
    },
    {
      "bufferView": 0,
      "byteOffset": 8400,
      "componentType": 5125,
      "count": 2676,
      "type": "SCALAR"
    }
  ],
  "asset": {
    "extras": {
      "author": "MyNameIsVoo (https://sketchfab.com/mynameisvoo)",
      "license": "CC-BY-4.0 (http://creativecommons.org/licenses/by/4.0/)",
      "source": "https://sketchfab.com/3d-models/bullet-045-hq-938eafe6131d400db324f13e67364466",
      "title": "Bullet 045 (HQ)"
    },
    "generator": "Sketchfab-12.68.0",
    "version": "2.0"
  },
  "bufferViews": [
    {
      "buffer": 0,
      "byteLength": 19104,
      "name": "floatBufferViews",
      "target": 34963
    },
    {
      "buffer": 0,
      "byteLength": 8800,
      "byteOffset": 19104,
      "byteStride": 8,
      "name": "floatBufferViews",
      "target": 34962
    },
    {
      "buffer": 0,
      "byteLength": 26400,
      "byteOffset": 27904,
      "byteStride": 12,
      "name": "floatBufferViews",
      "target": 34962
    }
  ],
  "buffers": [
    {
      "byteLength": 54304,
      "uri": "scene.bin"
    }
  ],
  "extensionsRequired": [
    "KHR_materials_pbrSpecularGlossiness"
  ],
  "extensionsUsed": [
    "KHR_materials_pbrSpecularGlossiness"
  ],
  "images": [
    {
      "uri": "textures/Bullet_045_diffuse.png"
    },
    {
      "uri": "textures/Bullet_045_specularGlossiness.png"
    }
  ],
  "materials": [
    {
      "doubleSided": true,
      "extensions": {
        "KHR_materials_pbrSpecularGlossiness": {
          "diffuseFactor": [
            1.0,
            1.0,
            1.0,
            1.0
          ],
          "diffuseTexture": {
            "index": 0
          },
          "glossinessFactor": 0.8946265243902439,
          "specularFactor": [
            1.0,
            1.0,
            1.0
          ],
          "specularGlossinessTexture": {
            "index": 1
          }
        }
      },
      "name": "Bullet_045"
    }
  ],
  "meshes": [
    {
      "name": "Shell_Bullet_045_0",
      "primitives": [
        {
          "attributes": {
            "NORMAL": 1,
            "POSITION": 0,
            "TEXCOORD_0": 2
          },
          "indices": 3,
          "material": 0,
          "mode": 4
        }
      ]
    },
    {
      "name": "Bullet_Bullet_045_0",
      "primitives": [
        {
          "attributes": {
            "NORMAL": 5,
            "POSITION": 4,
            "TEXCOORD_0": 6
          },
          "indices": 7,
          "material": 0,
          "mode": 4
        }
      ]
    }
  ],
  "nodes": [
    {
      "children": [
        1
      ],
      "matrix": [
        1.0,
        0.0,
        0.0,
        0.0,
        0.0,
        2.220446049250313e-16,
        -1.0,
        0.0,
        0.0,
        1.0,
        2.220446049250313e-16,
        0.0,
        0.0,
        0.0,
        0.0,
        1.0
      ],
      "name": "Sketchfab_model"
    },
    {
      "children": [
        2
      ],
      "matrix": [
        1.0,
        0.0,
        0.0,
        0.0,
        0.0,
        0.0,
        1.0,
        0.0,
        0.0,
        -1.0,
        0.0,
        0.0,
        0.0,
        0.0,
        0.0,
        1.0
      ],
      "name": "43db460b987d4b809043d580682d7ed8.fbx"
    },
    {
      "children": [
        3,
        6
      ],
      "name": "RootNode"
    },
    {
      "children": [
        4
      ],
      "matrix": [
        0.421993613243103,
        0.0,
        0.0,
        0.0,
        0.0,
        0.4219936132431026,
        1.8445927526305436e-08,
        0.0,
        0.0,
        -1.8445927526305436e-08,
        0.4219936132431026,
        0.0,
        2.3245811462402344e-06,
        1.1001403331756592,
        -2.9802322387695313e-08,
        1.0
      ],
      "name": "Shell"
    },
    {
      "children": [
        5
      ],
      "matrix": [
        1.0,
        0.0,
        -0.0,
        0.0,
        0.0,
        1.0,
        0.0,
        0.0,
        0.0,
        0.0,
        1.0,
        0.0,
        0.0123443603515625,
        1.7187999486923218,
        -11.998899459838867,
        1.0
      ],
      "name": "Object_4"
    },
    {
      "mesh": 0,
      "name": "Shell_Bullet_045_0"
    },
    {
      "children": [
        7
      ],
      "matrix": [
        0.421993613243103,
        0.0,
        0.0,
        0.0,
        0.0,
        0.4219936132431026,
        1.8445927526305436e-08,
        0.0,
        0.0,
        -1.8445927526305436e-08,
        0.4219936132431026,
        0.0,
        2.3245811462402344e-06,
        2.2937281131744385,
        5.960464477539063e-08,
        1.0
      ],
      "name": "Bullet"
    },
    {
      "children": [
        8
      ],
      "matrix": [
        1.0,
        0.0,
        -0.0,
        0.0,
        0.0,
        1.0,
        0.0,
        0.0,
        0.0,
        0.0,
        1.0,
        0.0,
        0.0123443603515625,
        -1.109649896621704,
        -11.998899459838867,
        1.0
      ],
      "name": "Object_7"
    },
    {
      "mesh": 1,
      "name": "Bullet_Bullet_045_0"
    }
  ],
  "samplers": [
    {
      "magFilter": 9729,
      "minFilter": 9987,
      "wrapS": 10497,
      "wrapT": 10497
    }
  ],
  "scene": 0,
  "scenes": [
    {
      "name": "Sketchfab_Scene",
      "nodes": [
        0
      ]
    }
  ],
  "textures": [
    {
      "sampler": 0,
      "source": 0
    },
    {
      "sampler": 0,
      "source": 1
    }
  ]
}
