{
  "accessors": [
    {
      "bufferView": 2,
      "componentType": 5126,
      "count": 37984,
      "max": [
        5.0213799476623535,
        9.304670333862305,
        2.7870900630950928
      ],
      "min": [
        -5.090219974517822,
        -17.65089988708496,
        -3.054500102996826
      ],
      "type": "VEC3"
    },
    {
      "bufferView": 2,
      "byteOffset": 455808,
      "componentType": 5126,
      "count": 37984,
      "max": [
        1.0,
        1.0,
        1.0
      ],
      "min": [
        -1.0,
        -1.0,
        -1.0
      ],
      "type": "VEC3"
    },
    {
      "bufferView": 1,
      "componentType": 5126,
      "count": 37984,
      "max": [
        0.9995399713516235,
        0.9988999962806702
      ],
      "min": [
        0.00039999998989515007,
        0.00037997998879291117
      ],
      "type": "VEC2"
    },
    {
      "bufferView": 0,
      "componentType": 5125,
      "count": 60168,
      "type": "SCALAR"
    },
    {
      "bufferView": 2,
      "byteOffset": 911616,
      "componentType": 5126,
      "count": 762,
      "max": [
        0.806581974029541,
        -0.5218440294265747,
        0.06033480167388916
      ],
      "min": [
        -0.8754289746284485,
        -4.971560001373291,
        -0.766277015209198
      ],
      "type": "VEC3"
    },
    {
      "bufferView": 2,
      "byteOffset": 920760,
      "componentType": 5126,
      "count": 762,
      "max": [
        1.0,
        1.0,
        0.937684953212738
      ],
      "min": [
        -1.0,
        -1.0,
        -0.9998763203620911
      ],
      "type": "VEC3"
    },
    {
      "bufferView": 1,
      "byteOffset": 303872,
      "componentType": 5126,
      "count": 762,
      "max": [
        4.962920188903809,
        5.114250183105469
      ],
      "min": [
        -0.8217170238494873,
        -0.6472269892692566
      ],
      "type": "VEC2"
    },
    {
      "bufferView": 0,
      "byteOffset": 240672,
      "componentType": 5125,
      "count": 984,
      "type": "SCALAR"
    },
    {
      "bufferView": 2,
      "byteOffset": 929904,
      "componentType": 5126,
      "count": 5368,
      "max": [
        3.5789198875427246,
        4.04164981842041,
        2.7870700359344482
      ],
      "min": [
        -3.6477699279785156,
        -18.454700469970703,
        -0.8617370128631592
      ],
      "type": "VEC3"
    },
    {
      "bufferView": 2,
      "byteOffset": 994320,
      "componentType": 5126,
      "count": 5368,
      "max": [
        1.0,
        1.0,
        1.0
      ],
      "min": [
        -1.0,
        -0.9999692440032959,
        -1.0
      ],
      "type": "VEC3"
    },
    {
      "bufferView": 1,
      "byteOffset": 309968,
      "componentType": 5126,
      "count": 5368,
      "max": [
        0.9976400136947632,
        0.9924100041389465
      ],
      "min": [
        0.12910999357700348,
        0.001209969981573522
      ],
      "type": "VEC2"
    },
    {
      "bufferView": 0,
      "byteOffset": 244608,
      "componentType": 5125,
      "count": 7962,
      "type": "SCALAR"
    },
    {
      "bufferView": 2,
      "byteOffset": 1058736,
      "componentType": 5126,
      "count": 19620,
      "max": [
        4.989920139312744,
        4.301559925079346,
        2.1805899143218994
      ],
      "min": [
        -5.081709861755371,
        -15.474100112915039,
        0.015095899812877178
      ],
      "type": "VEC3"
    },
    {
      "bufferView": 2,
      "byteOffset": 1294176,
      "componentType": 5126,
      "count": 19620,
      "max": [
        1.0,
        1.0,
        1.0
      ],
      "min": [
        -1.0,
        -1.0,
        -1.0
      ],
      "type": "VEC3"
    },
    {
      "bufferView": 1,
      "byteOffset": 352912,
      "componentType": 5126,
      "count": 19620,
      "max": [
        2.9802000522613525,
        2.493299961090088
      ],
      "min": [
        0.0006000000284984708,
        -0.6413000226020813
      ],
      "type": "VEC2"
    },
    {
      "bufferView": 0,
      "byteOffset": 276456,
      "componentType": 5125,
      "count": 61473,
      "type": "SCALAR"
    },
    {
      "bufferView": 2,
      "byteOffset": 1529616,
      "componentType": 5126,
      "count": 1968,
      "max": [
        4.849689960479736,
        5.141419887542725,
        2.99603009223938
      ],
      "min": [
        -4.942460060119629,
        -16.31399917602539,
        -0.800678014755249
      ],
      "type": "VEC3"
    },
    {
      "bufferView": 2,
      "byteOffset": 1553232,
      "componentType": 5126,
      "count": 1968,
      "max": [
        0.8575825095176697,
        0.9992514252662659,
        1.0
      ],
      "min": [
        -0.8575804233551025,
        -0.9992486834526062,
        -1.0
      ],
      "type": "VEC3"
    },
    {
      "bufferView": 1,
      "byteOffset": 509872,
      "componentType": 5126,
      "count": 1968,
      "max": [
        1.016700029373169,
        1.999500036239624
      ],
      "min": [
        -0.016699999570846558,
        1.000499963760376
      ],
      "type": "VEC2"
    },
    {
      "bufferView": 0,
      "byteOffset": 522348,
      "componentType": 5125,
      "count": 10080,
      "type": "SCALAR"
    },
    {
      "bufferView": 2,
      "byteOffset": 1576848,
      "componentType": 5126,
      "count": 3288,
      "max": [
        5.053410053253174,
        5.078609943389893,
        2.9518799781799316
      ],
      "min": [
        -5.146180152893066,
        -16.25119972229004,
        -0.7565270066261292
      ],
      "type": "VEC3"
    },
    {
      "bufferView": 2,
      "byteOffset": 1616304,
      "componentType": 5126,
      "count": 3288,
      "max": [
        0.9999691843986511,
        0.6150667071342468,
        0.6539197564125061
      ],
      "min": [
        -0.9999691843986511,
        -0.6150678396224976,
        -0.6540878415107727
      ],
      "type": "VEC3"
    },
    {
      "bufferView": 1,
      "byteOffset": 525616,
      "componentType": 5126,
      "count": 3288,
      "max": [
        0.9945999979972839,
        1.9950000047683716
      ],
      "min": [
        0.005400000140070915,
        1.0048999786376953
      ],
      "type": "VEC2"
    },
    {
      "bufferView": 0,
      "byteOffset": 562668,
      "componentType": 5125,
      "count": 17064,
      "type": "SCALAR"
    }
  ],
  "asset": {
    "extras": {
      "author": "luis.adrian.villagrana (https://sketchfab.com/luis.adrian.designs3D)",
      "license": "CC-BY-4.0 (http://creativecommons.org/licenses/by/4.0/)",
      "source": "https://sketchfab.com/3d-models/redbull-rb6-40fac35927e44cd39f2a45d07cc42f79",
      "title": "RedBull RB6"
    },
    "generator": "Sketchfab-13.74.0",
    "version": "2.0"
  },
  "bufferViews": [
    {
      "buffer": 0,
      "byteLength": 630924,
      "name": "floatBufferViews",
      "target": 34963
    },
    {
      "buffer": 0,
      "byteLength": 551920,
      "byteOffset": 630924,
      "byteStride": 8,
      "name": "floatBufferViews",
      "target": 34962
    },
    {
      "buffer": 0,
      "byteLength": 1655760,
      "byteOffset": 1182844,
      "byteStride": 12,
      "name": "floatBufferViews",
      "target": 34962
    }
  ],
  "buffers": [
    {
      "byteLength": 2838604,
      "uri": "scene.bin"
    }
  ],
  "images": [
    {
      "uri": "textures/Body21Mtl.002_baseColor.png"
    },
    {
      "uri": "textures/Chassis1Mtl.002_baseColor.png"
    },
    {
      "uri": "textures/Meshpart1Mtl.002_baseColor.png"
    },
    {
      "uri": "textures/Meshpart3Mtl.002_baseColor.png"
    },
    {
      "uri": "textures/Meshpart4Mtl.002_baseColor.png"
    }
  ],
  "materials": [
    {
      "doubleSided": true,
      "name": "Body21Mtl.002",
      "pbrMetallicRoughness": {
        "baseColorTexture": {
          "index": 0
        },
        "metallicFactor": 0.0,
        "roughnessFactor": 0.0
      }
    },
    {
      "doubleSided": true,
      "name": "Window1Mtl.002",
      "pbrMetallicRoughness": {
        "baseColorFactor": [
          0.373615,
          0.368591,
          0.383775,
          1.0
        ],
        "metallicFactor": 0.0,
        "roughnessFactor": 0.0
      }
    },
    {
      "doubleSided": true,
      "name": "Chassis1Mtl.002",
      "pbrMetallicRoughness": {
        "baseColorTexture": {
          "index": 1
        },
        "metallicFactor": 0.0,
        "roughnessFactor": 0.0
      }
    },
    {
      "doubleSided": true,
      "name": "Meshpart1Mtl.002",
      "pbrMetallicRoughness": {
        "baseColorTexture": {
          "index": 2
        },
        "metallicFactor": 0.0,
        "roughnessFactor": 0.47375599999999995
      }
    },
    {
      "doubleSided": true,
      "name": "Meshpart3Mtl.002",
      "pbrMetallicRoughness": {
        "baseColorTexture": {
          "index": 3
        },
        "metallicFactor": 0.0
      }
    },
    {
      "doubleSided": true,
      "name": "Meshpart4Mtl.002",
      "pbrMetallicRoughness": {
        "baseColorTexture": {
          "index": 4
        },
        "metallicFactor": 0.0
      }
    }
  ],
  "meshes": [
    {
      "name": "Object_0",
      "primitives": [
        {
          "attributes": {
            "NORMAL": 1,
            "POSITION": 0,
            "TEXCOORD_0": 2
          },
          "indices": 3,
          "material": 0,
          "mode": 4
        }
      ]
    },
    {
      "name": "Object_1",
      "primitives": [
        {
          "attributes": {
            "NORMAL": 5,
            "POSITION": 4,
            "TEXCOORD_0": 6
          },
          "indices": 7,
          "material": 1,
          "mode": 4
        }
      ]
    },
    {
      "name": "Object_2",
      "primitives": [
        {
          "attributes": {
            "NORMAL": 9,
            "POSITION": 8,
            "TEXCOORD_0": 10
          },
          "indices": 11,
          "material": 2,
          "mode": 4
        }
      ]
    },
    {
      "name": "Object_3",
      "primitives": [
        {
          "attributes": {
            "NORMAL": 13,
            "POSITION": 12,
            "TEXCOORD_0": 14
          },
          "indices": 15,
          "material": 3,
          "mode": 4
        }
      ]
    },
    {
      "name": "Object_4",
      "primitives": [
        {
          "attributes": {
            "NORMAL": 17,
            "POSITION": 16,
            "TEXCOORD_0": 18
          },
          "indices": 19,
          "material": 4,
          "mode": 4
        }
      ]
    },
    {
      "name": "Object_5",
      "primitives": [
        {
          "attributes": {
            "NORMAL": 21,
            "POSITION": 20,
            "TEXCOORD_0": 22
          },
          "indices": 23,
          "material": 5,
          "mode": 4
        }
      ]
    }
  ],
  "nodes": [
    {
      "children": [
        1
      ],
      "matrix": [
        1.0,
        0.0,
        0.0,
        0.0,
        0.0,
        2.220446049250313e-16,
        -1.0,
        0.0,
        0.0,
        1.0,
        2.220446049250313e-16,
        0.0,
        0.0,
        0.0,
        0.0,
        1.0
      ],
      "name": "Sketchfab_model"
    },
    {
      "children": [
        2
      ],
      "name": "root"
    },
    {
      "children": [
        3
      ],
      "matrix": [
        1.0,
        0.0,
        0.0,
        0.0,
        0.0,
        2.220446049250313e-16,
        1.0,
        0.0,
        0.0,
        -1.0,
        2.220446049250313e-16,
        0.0,
        0.0,
        0.0,
        0.0,
        1.0
      ],
      "name": "GLTF_SceneRootNode"
    },
    {
      "children": [
        4,
        5,
        6,
        7,
        8,
        9
      ],
      "matrix": [
        1.0,
        0.0,
        0.0,
        0.0,
        0.0,
        -1.685873969314855e-07,
        0.9999999999999858,
        0.0,
        0.0,
        -0.9999999999999858,
        -1.685873969314855e-07,
        0.0,
        0.0,
        0.0,
        0.0,
        1.0
      ],
      "name": "RedBull RB6 1_2"
    },
    {
      "mesh": 0,
      "name": "Object_4"
    },
    {
      "mesh": 1,
      "name": "Object_5"
    },
    {
      "mesh": 2,
      "name": "Object_6"
    },
    {
      "mesh": 3,
      "name": "Object_7"
    },
    {
      "mesh": 4,
      "name": "Object_8"
    },
    {
      "mesh": 5,
      "name": "Object_9"
    }
  ],
  "samplers": [
    {
      "magFilter": 9729,
      "minFilter": 9987,
      "wrapS": 10497,
      "wrapT": 10497
    }
  ],
  "scene": 0,
  "scenes": [
    {
      "name": "Sketchfab_Scene",
      "nodes": [
        0
      ]
    }
  ],
  "textures": [
    {
      "sampler": 0,
      "source": 0
    },
    {
      "sampler": 0,
      "source": 1
    },
    {
      "sampler": 0,
      "source": 2
    },
    {
      "sampler": 0,
      "source": 3
    },
    {
      "sampler": 0,
      "source": 4
    }
  ]
}
